<svg xmlns="http://www.w3.org/2000/svg" viewBox="0 0 100 120" fill="none">
  <rect width="100" height="120" fill="#1a1a2e"/>
  <!-- Head silhouette -->
  <ellipse cx="50" cy="58" rx="28" ry="32" fill="#3a3a5a"/>
  <!-- Hair silhouette -->
  <path d="M22 55 Q20 30 35 20 Q50 12 65 20 Q80 30 78 55" fill="#2a2a4a"/>
  <path d="M25 45 Q22 60 25 75" fill="#2a2a4a"/>
  <path d="M75 45 Q78 60 75 75" fill="#2a2a4a"/>
  <!-- Neck/shoulders hint -->
  <path d="M35 88 Q50 95 65 88 L75 105 L25 105 Z" fill="#3a3a5a"/>
  <!-- Subtle eye shapes -->
  <ellipse cx="38" cy="55" rx="5" ry="3" fill="#4a4a6a"/>
  <ellipse cx="62" cy="55" rx="5" ry="3" fill="#4a4a6a"/>
  <!-- Film frame corners -->
  <rect x="8" y="8" width="12" height="8" rx="1" fill="#ff6600" opacity="0.6"/>
  <rect x="80" y="8" width="12" height="8" rx="1" fill="#ff6600" opacity="0.6"/>
  <rect x="8" y="104" width="12" height="8" rx="1" fill="#ff6600" opacity="0.6"/>
  <rect x="80" y="104" width="12" height="8" rx="1" fill="#ff6600" opacity="0.6"/>
</svg>
